{
    "asset" : {
        "generator" : "Khronos glTF Blender I/O v3.3.36",
        "version" : "2.0"
    },
    "scene" : 0,
    "scenes" : [
        {
            "name" : "Scene",
            "nodes" : [
                0,
                3,
                6
            ]
        }
    ],
    "nodes" : [
        {
            "mesh" : 0,
            "name" : "Hat",
            "rotation" : [
                -0.03039771504700184,
                -0.06627136468887329,
                -0.28478559851646423,
                0.9558144211769104
            ],
            "scale" : [
                0.4281768798828125,
                0.4281769096851349,
                0.4281768798828125
            ],
            "translation" : [
                0.5492432117462158,
                0.512714684009552,
                0.043198149651288986
            ]
        },
        {
            "mesh" : 1,
            "name" : "\u5c0f\u3055\u3044\u30ea\u30dc\u30f3",
            "scale" : [
                0.279988169670105,
                0.279988169670105,
                0.27998819947242737
            ],
            "translation" : [
                0,
                -0.06342768669128418,
                -0.49321413040161133
            ]
        },
        {
            "mesh" : 2,
            "name" : "\u7d50\u3073\u76ee",
            "rotation" : [
                0,
                0,
                -1,
                0
            ],
            "scale" : [
                -0.11337869614362717,
                -0.19630621373653412,
                -0.21019715070724487
            ],
            "translation" : [
                0,
                0,
                -0.32201290130615234
            ]
        },
        {
            "children" : [
                1,
                2
            ],
            "mesh" : 3,
            "name" : "\u308a\u307c\u3093",
            "rotation" : [
                0,
                0,
                -1,
                0
            ],
            "scale" : [
                -0.33482804894447327,
                -0.33482804894447327,
                -0.10174219310283661
            ],
            "translation" : [
                0.008878454566001892,
                -0.8624287843704224,
                0.45932283997535706
            ]
        },
        {
            "mesh" : 4,
            "name" : "\u5186",
            "rotation" : [
                0.6290347576141357,
                -0.13444267213344574,
                0.14622244238853455,
                0.7515713572502136
            ],
            "scale" : [
                0.07861483097076416,
                0.07861483097076416,
                0.07861483097076416
            ],
            "translation" : [
                -0.43626463413238525,
                0.12610740959644318,
                0.7473755478858948
            ]
        },
        {
            "mesh" : 5,
            "name" : "\u7acb\u65b9\u4f53.001",
            "rotation" : [
                0,
                -0.252225786447525,
                0.9676684141159058,
                7.305694538217722e-08
            ],
            "scale" : [
                -0.08360987156629562,
                -0.09521317481994629,
                -0.06624060124158859
            ],
            "translation" : [
                0,
                0.005292035639286041,
                1.000193476676941
            ]
        },
        {
            "children" : [
                4,
                5
            ],
            "mesh" : 6,
            "name" : "\u9854"
        }
    ],
    "materials" : [
        {
            "doubleSided" : true,
            "name" : "\u30de\u30c6\u30ea\u30a2\u30eb.004",
            "pbrMetallicRoughness" : {
                "baseColorFactor" : [
                    0.0009557527955621481,
                    0,
                    0.20489856600761414,
                    1
                ],
                "metallicFactor" : 0
            }
        },
        {
            "doubleSided" : true,
            "name" : "\u30de\u30c6\u30ea\u30a2\u30eb.001",
            "pbrMetallicRoughness" : {
                "baseColorFactor" : [
                    0.8000000715255737,
                    0.025903373956680298,
                    0.025903373956680298,
                    1
                ],
                "metallicFactor" : 0,
                "roughnessFactor" : 0.5
            }
        },
        {
            "doubleSided" : true,
            "name" : "\u30de\u30c6\u30ea\u30a2\u30eb.003",
            "pbrMetallicRoughness" : {
                "baseColorFactor" : [
                    0,
                    0,
                    0,
                    1
                ],
                "metallicFactor" : 0,
                "roughnessFactor" : 0.5
            }
        },
        {
            "doubleSided" : true,
            "name" : "\u30de\u30c6\u30ea\u30a2\u30eb.002",
            "pbrMetallicRoughness" : {
                "baseColorFactor" : [
                    0.41547131538391113,
                    0.0782989114522934,
                    0.06971494853496552,
                    1
                ],
                "metallicFactor" : 0,
                "roughnessFactor" : 0.5
            }
        },
        {
            "doubleSided" : true,
            "name" : "\u30de\u30c6\u30ea\u30a2\u30eb",
            "pbrMetallicRoughness" : {
                "baseColorFactor" : [
                    0.8000000715255737,
                    0.46063488721847534,
                    0.28003764152526855,
                    1
                ],
                "metallicFactor" : 0,
                "roughnessFactor" : 0.5
            }
        }
    ],
    "meshes" : [
        {
            "name" : "\u5186\u67f1",
            "primitives" : [
                {
                    "attributes" : {
                        "POSITION" : 0,
                        "NORMAL" : 1,
                        "TEXCOORD_0" : 2
                    },
                    "indices" : 3,
                    "material" : 0
                },
                {
                    "attributes" : {
                        "POSITION" : 4,
                        "NORMAL" : 5,
                        "TEXCOORD_0" : 6
                    },
                    "indices" : 7,
                    "material" : 1
                }
            ]
        },
        {
            "name" : "\u7acb\u65b9\u4f53.003",
            "primitives" : [
                {
                    "attributes" : {
                        "POSITION" : 8,
                        "NORMAL" : 9,
                        "TEXCOORD_0" : 10
                    },
                    "indices" : 11,
                    "material" : 1
                }
            ]
        },
        {
            "name" : "\u7acb\u65b9\u4f53.005",
            "primitives" : [
                {
                    "attributes" : {
                        "POSITION" : 12,
                        "NORMAL" : 13,
                        "TEXCOORD_0" : 14
                    },
                    "indices" : 15,
                    "material" : 1
                }
            ]
        },
        {
            "name" : "\u5927\u304d\u3044\u30ea\u30dc\u30f3",
            "primitives" : [
                {
                    "attributes" : {
                        "POSITION" : 16,
                        "NORMAL" : 17,
                        "TEXCOORD_0" : 18
                    },
                    "indices" : 11,
                    "material" : 1
                }
            ]
        },
        {
            "name" : "\u5186.001",
            "primitives" : [
                {
                    "attributes" : {
                        "POSITION" : 19,
                        "NORMAL" : 20,
                        "TEXCOORD_0" : 21
                    },
                    "indices" : 22,
                    "material" : 2
                }
            ]
        },
        {
            "name" : "\u7acb\u65b9\u4f53.006",
            "primitives" : [
                {
                    "attributes" : {
                        "POSITION" : 23,
                        "NORMAL" : 24,
                        "TEXCOORD_0" : 25
                    },
                    "indices" : 26,
                    "material" : 3
                }
            ]
        },
        {
            "name" : "\u7acb\u65b9\u4f53.004",
            "primitives" : [
                {
                    "attributes" : {
                        "POSITION" : 27,
                        "NORMAL" : 28,
                        "TEXCOORD_0" : 29
                    },
                    "indices" : 30,
                    "material" : 4
                }
            ]
        }
    ],
    "accessors" : [
        {
            "bufferView" : 0,
            "componentType" : 5126,
            "count" : 1126,
            "max" : [
                1.6204556226730347,
                2.3669769763946533,
                1.6204556226730347
            ],
            "min" : [
                -1.6204556226730347,
                0,
                -1.6204556226730347
            ],
            "type" : "VEC3"
        },
        {
            "bufferView" : 1,
            "componentType" : 5126,
            "count" : 1126,
            "type" : "VEC3"
        },
        {
            "bufferView" : 2,
            "componentType" : 5126,
            "count" : 1126,
            "type" : "VEC2"
        },
        {
            "bufferView" : 3,
            "componentType" : 5123,
            "count" : 4596,
            "type" : "SCALAR"
        },
        {
            "bufferView" : 4,
            "componentType" : 5126,
            "count" : 66,
            "max" : [
                1.0417284965515137,
                0.5537530183792114,
                1.0417284965515137
            ],
            "min" : [
                -1.0417284965515137,
                0.29966506361961365,
                -1.0417284965515137
            ],
            "type" : "VEC3"
        },
        {
            "bufferView" : 5,
            "componentType" : 5126,
            "count" : 66,
            "type" : "VEC3"
        },
        {
            "bufferView" : 6,
            "componentType" : 5126,
            "count" : 66,
            "type" : "VEC2"
        },
        {
            "bufferView" : 7,
            "componentType" : 5123,
            "count" : 192,
            "type" : "SCALAR"
        },
        {
            "bufferView" : 8,
            "componentType" : 5126,
            "count" : 49,
            "max" : [
                1.3879293203353882,
                1,
                1.5773723125457764
            ],
            "min" : [
                -1.3879293203353882,
                -1,
                -1
            ],
            "type" : "VEC3"
        },
        {
            "bufferView" : 9,
            "componentType" : 5126,
            "count" : 49,
            "type" : "VEC3"
        },
        {
            "bufferView" : 10,
            "componentType" : 5126,
            "count" : 49,
            "type" : "VEC2"
        },
        {
            "bufferView" : 11,
            "componentType" : 5123,
            "count" : 168,
            "type" : "SCALAR"
        },
        {
            "bufferView" : 12,
            "componentType" : 5126,
            "count" : 32,
            "max" : [
                1,
                1,
                1
            ],
            "min" : [
                -1,
                -1,
                -1
            ],
            "type" : "VEC3"
        },
        {
            "bufferView" : 13,
            "componentType" : 5126,
            "count" : 32,
            "type" : "VEC3"
        },
        {
            "bufferView" : 14,
            "componentType" : 5126,
            "count" : 32,
            "type" : "VEC2"
        },
        {
            "bufferView" : 15,
            "componentType" : 5123,
            "count" : 60,
            "type" : "SCALAR"
        },
        {
            "bufferView" : 16,
            "componentType" : 5126,
            "count" : 49,
            "max" : [
                1.3879293203353882,
                1,
                1
            ],
            "min" : [
                -1.3879293203353882,
                -1,
                -1
            ],
            "type" : "VEC3"
        },
        {
            "bufferView" : 17,
            "componentType" : 5126,
            "count" : 49,
            "type" : "VEC3"
        },
        {
            "bufferView" : 18,
            "componentType" : 5126,
            "count" : 49,
            "type" : "VEC2"
        },
        {
            "bufferView" : 19,
            "componentType" : 5126,
            "count" : 48,
            "max" : [
                1,
                0,
                1
            ],
            "min" : [
                -1,
                0,
                -1
            ],
            "type" : "VEC3"
        },
        {
            "bufferView" : 20,
            "componentType" : 5126,
            "count" : 48,
            "type" : "VEC3"
        },
        {
            "bufferView" : 21,
            "componentType" : 5126,
            "count" : 48,
            "type" : "VEC2"
        },
        {
            "bufferView" : 22,
            "componentType" : 5123,
            "count" : 210,
            "type" : "SCALAR"
        },
        {
            "bufferView" : 23,
            "componentType" : 5126,
            "count" : 14,
            "max" : [
                1.2723264694213867,
                1,
                1
            ],
            "min" : [
                -1.2723264694213867,
                -1,
                -1
            ],
            "type" : "VEC3"
        },
        {
            "bufferView" : 24,
            "componentType" : 5126,
            "count" : 14,
            "type" : "VEC3"
        },
        {
            "bufferView" : 25,
            "componentType" : 5126,
            "count" : 14,
            "type" : "VEC2"
        },
        {
            "bufferView" : 26,
            "componentType" : 5123,
            "count" : 36,
            "type" : "SCALAR"
        },
        {
            "bufferView" : 27,
            "componentType" : 5126,
            "count" : 203,
            "max" : [
                1.8751814365386963,
                1.0395902395248413,
                2.14532470703125
            ],
            "min" : [
                -1.8124830722808838,
                -2.4636354446411133,
                -0.8395062685012817
            ],
            "type" : "VEC3"
        },
        {
            "bufferView" : 28,
            "componentType" : 5126,
            "count" : 203,
            "type" : "VEC3"
        },
        {
            "bufferView" : 29,
            "componentType" : 5126,
            "count" : 203,
            "type" : "VEC2"
        },
        {
            "bufferView" : 30,
            "componentType" : 5123,
            "count" : 1032,
            "type" : "SCALAR"
        }
    ],
    "bufferViews" : [
        {
            "buffer" : 0,
            "byteLength" : 13512,
            "byteOffset" : 0,
            "target" : 34962
        },
        {
            "buffer" : 0,
            "byteLength" : 13512,
            "byteOffset" : 13512,
            "target" : 34962
        },
        {
            "buffer" : 0,
            "byteLength" : 9008,
            "byteOffset" : 27024,
            "target" : 34962
        },
        {
            "buffer" : 0,
            "byteLength" : 9192,
            "byteOffset" : 36032,
            "target" : 34963
        },
        {
            "buffer" : 0,
            "byteLength" : 792,
            "byteOffset" : 45224,
            "target" : 34962
        },
        {
            "buffer" : 0,
            "byteLength" : 792,
            "byteOffset" : 46016,
            "target" : 34962
        },
        {
            "buffer" : 0,
            "byteLength" : 528,
            "byteOffset" : 46808,
            "target" : 34962
        },
        {
            "buffer" : 0,
            "byteLength" : 384,
            "byteOffset" : 47336,
            "target" : 34963
        },
        {
            "buffer" : 0,
            "byteLength" : 588,
            "byteOffset" : 47720,
            "target" : 34962
        },
        {
            "buffer" : 0,
            "byteLength" : 588,
            "byteOffset" : 48308,
            "target" : 34962
        },
        {
            "buffer" : 0,
            "byteLength" : 392,
            "byteOffset" : 48896,
            "target" : 34962
        },
        {
            "buffer" : 0,
            "byteLength" : 336,
            "byteOffset" : 49288,
            "target" : 34963
        },
        {
            "buffer" : 0,
            "byteLength" : 384,
            "byteOffset" : 49624,
            "target" : 34962
        },
        {
            "buffer" : 0,
            "byteLength" : 384,
            "byteOffset" : 50008,
            "target" : 34962
        },
        {
            "buffer" : 0,
            "byteLength" : 256,
            "byteOffset" : 50392,
            "target" : 34962
        },
        {
            "buffer" : 0,
            "byteLength" : 120,
            "byteOffset" : 50648,
            "target" : 34963
        },
        {
            "buffer" : 0,
            "byteLength" : 588,
            "byteOffset" : 50768,
            "target" : 34962
        },
        {
            "buffer" : 0,
            "byteLength" : 588,
            "byteOffset" : 51356,
            "target" : 34962
        },
        {
            "buffer" : 0,
            "byteLength" : 392,
            "byteOffset" : 51944,
            "target" : 34962
        },
        {
            "buffer" : 0,
            "byteLength" : 576,
            "byteOffset" : 52336,
            "target" : 34962
        },
        {
            "buffer" : 0,
            "byteLength" : 576,
            "byteOffset" : 52912,
            "target" : 34962
        },
        {
            "buffer" : 0,
            "byteLength" : 384,
            "byteOffset" : 53488,
            "target" : 34962
        },
        {
            "buffer" : 0,
            "byteLength" : 420,
            "byteOffset" : 53872,
            "target" : 34963
        },
        {
            "buffer" : 0,
            "byteLength" : 168,
            "byteOffset" : 54292,
            "target" : 34962
        },
        {
            "buffer" : 0,
            "byteLength" : 168,
            "byteOffset" : 54460,
            "target" : 34962
        },
        {
            "buffer" : 0,
            "byteLength" : 112,
            "byteOffset" : 54628,
            "target" : 34962
        },
        {
            "buffer" : 0,
            "byteLength" : 72,
            "byteOffset" : 54740,
            "target" : 34963
        },
        {
            "buffer" : 0,
            "byteLength" : 2436,
            "byteOffset" : 54812,
            "target" : 34962
        },
        {
            "buffer" : 0,
            "byteLength" : 2436,
            "byteOffset" : 57248,
            "target" : 34962
        },
        {
            "buffer" : 0,
            "byteLength" : 1624,
            "byteOffset" : 59684,
            "target" : 34962
        },
        {
            "buffer" : 0,
            "byteLength" : 2064,
            "byteOffset" : 61308,
            "target" : 34963
        }
    ],
    "buffers" : [
        {
            "byteLength" : 63372,
            "uri" : "data:application/octet-stream;base64,"
        }
    ]
}
